<svg height="44" viewBox="0 0 55 44" width="55" xmlns="http://www.w3.org/2000/svg"><g fill="none" fill-rule="evenodd" transform="translate(4 3)"><g fill="#fff" stroke="#000"><path d="m6.192 30.03h-1.60397461l-3.03561328 7.4558809c-.03225635.1627461.11235361.2441191.4338299.2441191.3214763 0 .53092517-.057262.62834662-.1717859z" stroke-width=".6336"/><path d="m27.864 30.03h-1.6039746l-3.0356133 7.4558809c-.0322563.1627461.1123536.2441191.4338299.2441191s.5309252-.057262.6283466-.1717859z" stroke-width=".6336" transform="matrix(-1 0 0 1 51.084 0)"/><path d="m5.43180811 28.4423324c1.32634645.1072521 18.19933459 0 18.92743839 0 .4854026 0 .9611506-1.2375207 1.4272442-3.7125621l.3360093-4.5247321-1.9294189-3.6206412c-1.6512263-3.0986005-4.8763039-5.034397-8.387411-5.034397h-2.1958146c-3.37624 0-6.49903258 1.7911803-8.20367578 4.7054878l-2.31017972 3.9495504.41436611 4.7712136c.39673037 2.239219 1.03721104 3.3945792 1.921442 3.4660806z" stroke-linejoin="round" stroke-width=".99"/><path d="m29.3238453 21.5663792-.0754661.5321069c-.3395975 2.3162303-.9433263 6.2287815-2.0375848 7.3868967-1.0942585 1.220716-1.7357204 1.3146172-3.3582416 1.3146172h-9.1691316-9.13139848c-1.62252122 0-2.2639831-.0939012-3.3582416-1.3146172-1.0942585-1.1581152-1.69798733-5.0706664-2.03758479-7.3868967l-.07546611-.5321069c-.30186441-1.8467242.24364704-2.3162303 1.62252123-2.3162303.22639831 0 1.54705512-.0313004 1.73572037.8138106.07546611.3130041.15093221 1.0329135.18866526 1.8467242.26413137 3.443045.56599578 5.884477 2.1130509 6.040979.83012714.0939013 2.90544498.1252017 4.86756362.1252017 1.8111865 0 3.5469069-.0313004 3.9997035-.0313004.1509322 0 1.9998518.0313004 3.9997035.0313004 2.0375848 0 4.2261018-.0313004 5.0562289-.1252017 1.5470552-.156502 1.8489196-2.597934 2.1130509-6.040979.0754661-.8138107.1131992-1.5337201.1886653-1.8467242.1509322-.5634074 1.0187924-.7720767 2.6035806-.6260082.5282627.1252017 1.0565254.2817037.754661 2.1284279z" stroke-width=".99"/><path d="m25.1654377 25.135h-20.94861522c-.05598937.1983382-.08458769.403917-.08458769.6109999 0 .6210443.2517279 1.1832943.65871686 1.5902832.40698896.406989.96923898.6587169 1.5902832.6587169h16.43192445c.2703903 0 .5388318-.0457475.7939597-.1353058.6245736-.2192459 1.101152-.6708943 1.3667755-1.2238747.2189828-.4558828.2945896-.9806361.1915432-1.5008195z" stroke-width=".99"/><path d="m4.44894417 25.4836971c1.19064786.0021853 4.12607947.0068071 7.89883693.0083158l3.8406794.0001783c3.0104717-.0016081 5.5430876-.0109993 7.207114-.0630913.5466313-.0171122.9960398-.0385932 1.6080323-.1392083-.05314-.2268194-.1564353-.4209306-.316254-.5847416-.2929939-.3003127-.7456154-.5009945-1.3408829-.6549004-1.6196183-.418751-4.2134148-.4446235-7.8085807-.4473284l-.7768234-.0002263c-.6054921 0-1.1859102-.0020957-1.7411063-.0041013-3.27548193-.0118324-5.65643573-.0338279-7.13644305.4309607-.5179945.1626735-.91510771.3827179-1.17134599.7152223-.15623733.2027394-.2522509.4470919-.26322629.7389205z" stroke-width=".99"/></g><path d="m10.2232501 15.4c.1033049 0 .1870501.0837451.1870501.18705l-.0003002.55695.5624169.0003334c.102771 0 .1860834.0833124.1860834.1860834s-.0833124.1860834-.1860834.1860834l-.5624169-.0005002.0003002.5577836c0 .1033048-.0837452.18705-.1870501.18705-.1033048 0-.18705-.0837452-.18705-.18705l-.0002001-.5577836-.56191664.0005002c-.102771 0-.18608336-.0833124-.18608336-.1860834s.08331236-.1860834.18608336-.1860834l.56191664-.0003334.0002001-.55695c0-.1033049.0837452-.18705.18705-.18705z" fill="#000" transform="matrix(.69465837 .7193398 -.7193398 .69465837 14.868703 -2.367634)"/><path d="m14.8672501 15.4c.1033049 0 .1870501.0837451.1870501.18705l-.0003002.55695.5624169.0003334c.102771 0 .1860834.0833124.1860834.1860834s-.0833124.1860834-.1860834.1860834l-.5624169-.0005002.0003002.5577836c0 .1033048-.0837452.18705-.1870501.18705-.1033048 0-.18705-.0837452-.18705-.18705l-.0002001-.5577836-.5619166.0005002c-.102771 0-.1860834-.0833124-.1860834-.1860834s.0833124-.1860834.1860834-.1860834l.5619166-.0003334.0002001-.55695c0-.1033049.0837452-.18705.18705-.18705z" fill="#000" transform="matrix(.69465837 .7193398 -.7193398 .69465837 16.286709 -5.708249)"/><path d="m18.7372501 15.4c.1033049 0 .1870501.0837451.1870501.18705l-.0003002.55695.5624169.0003334c.102771 0 .1860834.0833124.1860834.1860834s-.0833124.1860834-.1860834.1860834l-.5624169-.0005002.0003002.5577836c0 .1033048-.0837452.18705-.1870501.18705-.1033048 0-.18705-.0837452-.18705-.18705l-.0002001-.5577836-.5619166.0005002c-.102771 0-.1860834-.0833124-.1860834-.1860834s.0833124-.1860834.1860834-.1860834l.5619166-.0003334.0002001-.55695c0-.1033049.0837452-.18705.18705-.18705z" fill="#000" transform="matrix(.69465837 .7193398 -.7193398 .69465837 17.468381 -8.492094)"/><path d="m10.2232501 19.25c.1033049 0 .1870501.0837451.1870501.18705l-.0003002.55695.5624169.0003334c.102771 0 .1860834.0833124.1860834.1860834s-.0833124.1860834-.1860834.1860834l-.5624169-.0005002.0003002.5577836c0 .1033048-.0837452.18705-.1870501.18705-.1033048 0-.18705-.0837452-.18705-.18705l-.0002001-.5577836-.56191664.0005002c-.102771 0-.18608336-.0833124-.18608336-.1860834s.08331236-.1860834.18608336-.1860834l.56191664-.0003334.0002001-.55695c0-.1033049.0837452-.18705.18705-.18705z" fill="#000" transform="matrix(.69465837 .7193398 -.7193398 .69465837 17.638161 -1.192069)"/><path d="m14.8672501 19.25c.1033049 0 .1870501.0837451.1870501.18705l-.0003002.55695.5624169.0003334c.102771 0 .1860834.0833124.1860834.1860834s-.0833124.1860834-.1860834.1860834l-.5624169-.0005002.0003002.5577836c0 .1033048-.0837452.18705-.1870501.18705-.1033048 0-.18705-.0837452-.18705-.18705l-.0002001-.5577836-.5619166.0005002c-.102771 0-.1860834-.0833124-.1860834-.1860834s.0833124-.1860834.1860834-.1860834l.5619166-.0003334.0002001-.55695c0-.1033049.0837452-.18705.18705-.18705z" fill="#000" transform="matrix(.69465837 .7193398 -.7193398 .69465837 19.056167 -4.532683)"/><path d="m18.7372501 19.25c.1033049 0 .1870501.0837451.1870501.18705l-.0003002.55695.5624169.0003334c.102771 0 .1860834.0833124.1860834.1860834s-.0833124.1860834-.1860834.1860834l-.5624169-.0005002.0003002.5577836c0 .1033048-.0837452.18705-.1870501.18705-.1033048 0-.18705-.0837452-.18705-.18705l-.0002001-.5577836-.5619166.0005002c-.102771 0-.1860834-.0833124-.1860834-.1860834s.0833124-.1860834.1860834-.1860834l.5619166-.0003334.0002001-.55695c0-.1033049.0837452-.18705.18705-.18705z" fill="#000" transform="matrix(.69465837 .7193398 -.7193398 .69465837 20.23784 -7.316528)"/><g transform="translate(21.285)"><path d="m17.6990564 35.9047535-1.1135463-26.45224941c-.0093061-.22106636.1623595-.40782016.3834259-.41712627.0017494-.00007364.0034992-.00013582.0052495-.00018652.2249438-.00651622.4133556.16896613.4228206.39380519l1.1135463 26.45224941c.0093061.2210664-.1623595.4078202-.3834259.4171263-.0017494.0000736-.0034992.0001358-.0052495.0001865-.2249438.0065162-.4133556-.1689661-.4228206-.3938052z" fill="#000"/><path d="m7.67393532 4.04337604 17.07655668 9.39326716c.1697148.0933547.2316169.3066146.1382622.4763294-.0000847.0001539-.0001695.0003078-.0002544.0004617-.0933696.1691393-.306175.2305628-.4753143.1371933-.0004157-.0002295-.0008308-.0004597-.0012455-.0006909l-16.73891663-9.32945937c-.18211661-.10150296-.29500145-.29365368-.29500145-.50214664 0-.11027825.08939819-.19967644.19967645-.19967644.0336496 0 .06675348.00850387.09623695.02472179z" fill="#000"/><path d="m18.2292482 35.3360445-3.1245643 1.0652709 6.2523545-.5739616z" fill="#fff" stroke="#000" stroke-width=".6336"/><ellipse cx="16.894969" cy="9.348281" fill="#fff" rx="1" ry="1" stroke="#ff4339" stroke-width=".55"/><path d="m8.31150984.64651381c.4131928.45427121.54570945 1.09598435.3460019 1.67551744l-1.86163869 5.40230562c-.12707285.36875379-.50753708.57956564-.88153059.50591549l-.12174289-.03439914-4.64981648-1.87651379c-.39610668-.15988263-.5869308-.60894155-.42621761-1.00300116.04382066-.10744578.11146777-.2036586.19789283-.28145809l5.00681635-4.5071158c.69300732-.62384238 1.76315206-.57067645 2.39023518.11874943zm-.45913373.41331034c-.36923003-.40593779-.98070312-.46400172-1.41800866-.15350405l-.09763539.07820523-5.00681635 4.50711581c-.01728501.0155599-.03081443.03480246-.03957857.05629161-.02571411.06304954-.00643144.13313899.04287152.17502477l.04237201.02557547 4.63792132 1.87177577c.06469866.02206536.13398164-.00095362.17330208-.05223697l.02333255-.04349928 1.8616387-5.40230562c.11256375-.32664972.05867787-.68445265-.13870082-.96224024z" fill="#ff4339" fill-rule="nonzero"/></g></g></svg>