<svg height="44" viewBox="0 0 55 44" width="55" xmlns="http://www.w3.org/2000/svg"><g fill="none" fill-rule="evenodd" transform="translate(9 7)"><g fill="#000"><path d="m13.4574902 21.3876529c.3359542 0 .5584716.2225174.5584716.5584716s-.2225174.5584716-.5584716.5584716h-9.66211718c-.33595419 0-.55847162-.2225174-.55847162-.5584716s.22251743-.5584716.55847162-.5584716z" fill-rule="nonzero"/><path d="m.5584716 16.6976084h9.6621172c.3359542 0 .5584716.2225174.5584716.5584716 0 .3172901-.1984801.5333973-.5035483.55643l-.0549233.0020416h-9.6621172c-.33595417 0-.5584716-.2225174-.5584716-.5584716 0-.3172901.19848005-.5333973.50354828-.55643l.05492332-.0020416h9.6621172z" fill-rule="nonzero"/><path d="m3.79537302 12.0075639h9.66211718c.3359542 0 .5584716.2225174.5584716.5584716 0 .31729-.1984801.5333973-.5035483.5564299l-.0549233.0020417h-9.66211718c-.33377615 0-.55847162-.2246955-.55847162-.5584716 0-.3172901.19848006-.5333973.5035483-.55643l.05492332-.0020416h9.66211718z" fill-rule="nonzero"/><path d="m34.1697335 11.1466069c.9741555 1.9028058 1.5151722 4.0578329 1.5151722 6.3318788 0 7.7638722-6.3112876 14.0750537-14.0751598 14.0707123-3.7412013 0-7.2602425-1.4507061-9.941353-4.1318166-.2225174-.2224951-.2225174-.5584492 0-.7809667.2224951-.2225174.5584493-.2225174.7809667 0 2.4561581 2.4586154 5.6957402 3.7980537 9.1578173 3.7980537 7.148995 0 12.9559827-5.8069877 12.9559827-12.9559827 0-1.9502025-.4376122-3.8063141-1.2217961-5.4692943z" fill-rule="nonzero"/><path d="m32.4572288 12.9300127c.6031936 1.4130371.9370162 2.9687994.9370162 4.6028458 0 6.4791642-5.2485161 11.7279036-11.7279036 11.7279036-2.3994174 0-4.6900445-.7264598-6.6446951-2.0658981-.2792358-.1657543-.3359542-.5017309-.1679771-.7809667.1679659-.2226012.5039089-.2793196.8376851-.1157041 1.7298099 1.2281907 3.7979419 1.8434031 5.9750876 1.8434031 5.8639519 0 10.6109604-4.7470087 10.6109604-10.6109605 0-1.308133-.2362343-2.5606816-.6684036-3.7173461z" fill-rule="nonzero"/><path d="m21.6663414 5.80495489c2.9589319 0 5.661246 1.09463298 7.7242126 2.90123325l-.7715511.80580914c-1.861614-1.6152152-4.2921338-2.59232191-6.952561-2.59232191-2.2341098 0-4.4134894.67195302-6.2001517 2.0113913-.2792135.1679771-.6129896.11125872-.7809667-.11125868-.1679771-.2224951-.1112587-.6129896.1112587-.78096669 2.011503-1.45291972 4.4133777-2.23388641 6.8697592-2.23388641z" fill-rule="nonzero"/><path d="m22.1683292 3.46207715c3.2826641.1089772 6.2448545 1.34422166 8.5688576 3.33657275l.1444163.12550442.1096669.10969744-.7791571.81426999c-2.3119164-2.03285656-5.3281917-3.2713353-8.6048243-3.2713353-3.5731013 0-6.9239309 1.45291975-9.4370531 4.07728949-.2224951.22251744-.5584493.22251744-.7809667 0-.2225174-.22249507-.2225174-.55844925 0-.78096669 2.5233575-2.68587878 5.8517608-4.18783308 9.4613013-4.40054199l.2008159-.01049011z" fill-rule="nonzero"/><path d="m27.2388315 2.80496584c.5346116 0 .968.43338837.968.968v.968c0 .53461164-.4333884.968-.968.968-.5346117 0-.968-.43338836-.968-.968v-.968c0-.53461163.4333883-.968.968-.968z" transform="matrix(.93358043 .35836795 -.35836795 .93358043 3.334752 -9.478778)"/><path d="m21.417 0h.726c.6014381 0 1.089.48756191 1.089 1.089v2.783h-2.904v-2.783c0-.60143809.4875619-1.089 1.089-1.089z"/></g><path d="m33.5142351 8.6936111c.220912.45241395.1255836.99409444-.2345232 1.3436075-1.9330806 1.9374553-3.6139684 3.7026646-5.28507 5.4626282-1.8799477 1.9799153-3.7475103 3.9531916-5.9478105 6.157593-.4251839.4312187-1.1105833.4629883-1.5735716.0726264l-5.0354292-4.2607478c-.2375483-.198241-.3858262-.4826769-.4115495-.7913371-.0272339-.3086718.0696012-.6142914.2693218-.850329.1997516-.2375522.4856982-.3843156.7928477-.4100389.3086718-.0257233.6142914.0726264.8503291.272347l4.2123302 3.5586927c1.0609717-1.0754082 2.0564211-2.1061479 3.028099-3.1210357 2.4175198-2.5250254 4.6878927-4.9519269 7.4541152-7.72450409.180036-.18913071.4191143-.31319981.6778462-.35102749.4979885-.06808287.9836712.19062199 1.2030648.64152528z" fill="#ff4338" fill-rule="nonzero"/></g></svg>