<svg height="44" viewBox="0 0 55 44" width="55" xmlns="http://www.w3.org/2000/svg"><g fill="none" transform="translate(6)"><path d="m21.3832008 7.13694345c8.2737424.13088188 15.082553 6.94036525 15.2136914 15.21418965.1297423 8.1857416-6.3246799 14.7414411-14.4698939 14.7718334l-.2987411-.0018083-.1617756-1.7481307c7.5464551-.2663712 13.2595557-5.5828477 13.2118742-12.826987-.0476816-7.2441394-5.9720292-13.5840164-13.7306228-13.70674917-7.6474672-.12097487-12.85884387 5.39185747-12.89627893 13.00087247l-1.63688833.0668048c-.12974227-8.1857416 6.32467986-14.74144114 14.46989386-14.77183346z" fill="#000" transform="matrix(.7313537 .68199836 -.68199836 .7313537 20.896276 -8.790184)"/><path d="m21.2215646 11.8872543c-.5927441 0-1.0584716.4801587-1.0584716 1.0912698v10.0833333.0436508.0436508.0436508.0436508.0436508.0436508.0436508.0436508s0 .0436508.0423389.0436508c0 0 0 .0436508.0423388.0436508 0 0 0 .0436508.0423389.0436508 0 0 0 .0436507.0423389.0436507 0 0 .0423388.0436508.0423388.0436508s0 .0436508.0423389.0436508c0 0 .0423389.0436508.0423389.0436508s.0423388.0436508.0423388.0436508.0423389.0436508.0423389.0436508.0423389.0436508.0423389.0436508l5.5887301 4.3214286c.2116943.1309524.4233886.218254.635083.218254.3387109 0 .6350829-.1309524.8467773-.436508.3387109-.4801587.2540332-1.1785714-.2116944-1.5277778l-5.1653415-4.015873v-9.4285714c0-.6111111-.4657275-1.0912698-1.0584716-1.0912698z" fill="#000"/><g fill="#ff4338"><path d="m10.1217094 16.8470965c.2977349-.5228351.1099096-1.1973265-.41951956-1.5065188-.52942919-.3091923-1.19997822-.1360007-1.49771318.3868343-.29773497.5228351-.10990968 1.1973265.4195195 1.5065188.52942919.3091923 1.19997823.1360007 1.49771324-.3868343z"/><circle cx="6.963093" cy="22.887254" r="1.1"/><path d="m9.71301329 30.4397162c.52603021-.3037126.70625421-.976352.40254161-1.5023822-.30371255-.5260302-.97635198-.7062543-1.50238218-.4025417s-.70625423.976352-.40254165 1.5023822c.30371259.5260302.97635202.7062543 1.50238222.4025417z"/></g></g></svg>