<svg height="48" viewBox="0 0 27 48" width="27" xmlns="http://www.w3.org/2000/svg"><g fill="none"><path d="m25.4117647 18.4h-3.1764706v-14.4c0-2.2056-1.7812059-4-3.9705882-4h-14.29411766c-2.18938236 0-3.97058824 1.7944-3.97058824 4v40c0 2.2056 1.78120588 4 3.97058824 4h14.29411766c2.1893823 0 3.9705882-1.7944 3.9705882-4v-20.8h3.1764706c.8759118 0 1.5882353-.7176 1.5882353-1.6v-1.6c0-.8824-.7123235-1.6-1.5882353-1.6zm-4.7647059 25.6c0 1.3232-1.0688823 2.4-2.3823529 2.4h-14.29411766c-1.31347059 0-2.38235295-1.0768-2.38235295-2.4v-40c0-1.3232 1.06888236-2.4 2.38235295-2.4h14.29411766c1.3134706 0 2.3823529 1.0768 2.3823529 2.4v14.4h-8.586c-.8250882-1.432-2.36091174-2.4-4.11988233-2.4-2.62773529 0-4.76470588 2.1528-4.76470588 4.8s2.13697059 4.8 4.76470588 4.8c1.75897059 0 3.29479413-.968 4.11988233-2.4h8.586zm-9.5294117-23.2c0 1.7648-1.4246471 3.2-3.17647063 3.2s-3.17647059-1.4352-3.17647059-3.2 1.42464706-3.2 3.17647059-3.2 3.17647063 1.4352 3.17647063 3.2zm14.2941176.8h-12.7773529c.0436764-.2608.0714706-.5272.0714706-.8s-.0277942-.5392-.0714706-.8h12.7773529z" fill="#000"/><path d="m8 28c-1.6545 0-3 1.38-3 3.0769231 0 .7430769.27 1.4623077.75 2.0230769v2.5923077c0 1.2723077 1.0095 2.3076923 2.25 2.3076923s2.25-1.0353846 2.25-2.3076923v-2.5923077c.48-.5607692.75-1.28.75-2.0230769 0-1.6969231-1.3455-3.0769231-3-3.0769231zm.9975 4.2146154c-.1575.1461538-.2475.3530769-.2475.5715384v2.9061539c0 .4246154-.33675.7692308-.75.7692308s-.75-.3446154-.75-.7692308v-2.9061539c0-.2176923-.09-.4253846-.2475-.5707692-.324-.3-.5025-.7046154-.5025-1.1384615 0-.8484616.67275-1.5384616 1.5-1.5384616s1.5.69 1.5 1.5384616c0 .4338461-.1785.8384615-.5025 1.1376923z" fill="#ff4439"/></g></svg>