<svg height="63" viewBox="0 0 42 63" width="42" xmlns="http://www.w3.org/2000/svg"><g fill="none" fill-rule="evenodd"><path d="m16 12.8h-6.4c-3.5288 0-6.4 2.8712-6.4 6.4 0 .4424.3584.8.8.8h2.4v3.572c0 1.6104-.6272 3.1232-1.7656 4.2624-1.4408 1.4408-2.2344 3.356-2.2344 5.3936v8.372c0 .4424.3584.8.8.8h11.2c.4416 0 .8-.3576.8-.8v-8.372c0-2.0376-.7936-3.9528-2.2344-5.3936-1.1384-1.1392-1.7656-2.652-1.7656-4.2624v-4.0408l.9496-.9496c.1154015 1.0583203.6413995 2.3881741 1.5779941 3.9895616.2068181.353692.6612123.4727149 1.0148852.2658642.0195967-.0114615.038657-.0238164.0571207-.0370258.3500712-.2504504.437804-.7337301.1980947-1.0912418-.9072631-1.3531777-1.3608947-2.7227638-1.3608947-4.1087582h2.3632c.4416 0 .8-.3576.8-.8v-3.2c0-.4424-.3584-.8-.8-.8zm-8.60515798 7.5897436h2.86784278v1.5179487h-2.86784278zm4.99379558 8.4112543c1.490617 1.5614318 1.5387124 2.5938739 1.2639314 12.586345h-10.46553485v-7.8146059c0-1.6550322.70250948-3.369706 1.79766221-4.5404789 1.38606471-1.4807318 2.39743517-2.8846276 2.39743517-4.9786996v-.6279175h2.89153717v.4026149c0 2.094072.7214983 3.5130716 2.1149689 4.972742zm3.4534812-12.1781115h-2.7963187s-1.1491394 1.0684195-1.1491394 1.0684195l-1.7013807 1.4493944h-6.12280618c0-2.4713632 2.62088756-5.4945099 5.56906137-5.4945099h6.20058361z" fill="#000" fill-rule="nonzero" transform="matrix(-1 0 0 1 19.2 0)"/><g fill="#fff"><g stroke="#000" stroke-width="1.2" transform="translate(24.8 20.8)"><path d="m10.28 3.48h-4.24v1.47820929l-4.60177875 5.94675871c-.54338789.702206-.83822125 1.5649706-.83822125 2.4528691v25.1573629c0 .597793.24230349 1.138993.63405524 1.5307448.39175175.3917517.93295175.6340552 1.53074476.6340552h10.7904c.597793 0 1.138993-.2423035 1.5307448-.6340552.3917517-.3917518.6340552-.9329518.6340552-1.5307448v-25.2051276c0-.8934216-.2985075-1.7612301-.8481132-2.4655991l-4.5918868-5.88491545z"/><rect height="2.64" rx=".9216" width="5.52" x="5.4" y=".6"/><path d="m3.48 15h9.36v16.08h-9.36z"/></g><g stroke="#000" stroke-width="1.1232" transform="translate(0 31.2)"><path d="m31.6077026 2.2896h-29.56698137l3.12445257 26.032356c.06123819.5102251.30827768.9573361.66847936 1.2768909.36020168.3195547.83356557.5115531 1.34745256.5115531h19.61091738c.5186624 0 .995623-.1954798 1.3567826-.5198818.3611597-.3244021.6065184-.7777263.6619771-1.2934151z"/><rect height="2.3328" rx="1.1664" width="32.5728" x=".5616" y=".5616"/></g><g transform="translate(15.2 30.4)"><g stroke="#000" stroke-width="1.1232"><rect height="8.9856" rx="1.1232" width="2.2464" x=".5616" y="10.0656"/><rect height="8.9856" rx="1.1232" width="2.2464" x="2.808" y="11.7936"/><rect height="8.9856" rx="1.1232" width="2.2464" x="5.0544" y="12.9168"/><rect height="8.9856" rx="1.1232" width="2.2464" x="7.3008" y="11.7936"/><rect height="8.9856" rx="1.1232" transform="matrix(.81915204 -.57357644 .57357644 .81915204 -4.19057 8.05001)" width="2.2464" x="9.5472" y="6.1776"/><path d="m.51089988 11.9928494v-10.8696494c0-.62032623.50287376-1.1232 1.1232-1.1232h6.74011256c.62032624 0 1.1232.50287377 1.1232 1.1232v11.8368"/></g><path d="m1.2096.7776h7.776v13.824h-7.776z"/></g></g><path d="m30 14.8c-2.6497149-.0030199-4.7969801-2.1502851-4.8-4.8 0-.2209139-.1790861-.4-.4-.4s-.4.1790861-.4.4c-.0030199 2.6497149-2.1502851 4.7969801-4.8 4.8-.2209139 0-.4.1790861-.4.4s.1790861.4.4.4c2.6497149.0030199 4.7969801 2.1502851 4.8 4.8 0 .2209139.1790861.4.4.4s.4-.1790861.4-.4c.0030199-2.6497149 2.1502851-4.7969801 4.8-4.8.2209139 0 .4-.1790861.4-.4s-.1790861-.4-.4-.4zm-5.2 2.8c-.4378242-1.0947466-1.3052534-1.9621758-2.4-2.4 1.0947466-.4378242 1.9621758-1.3052534 2.4-2.4.4378242 1.0947466 1.3052534 1.9621758 2.4 2.4-1.0947466.4378242-1.9621758 1.3052534-2.4 2.4z" fill="#ff4439" fill-rule="nonzero"/><path d="m39.6 5.2c-2.6497149-.00301992-4.7969801-2.1502851-4.8-4.8 0-.2209139-.1790861-.4-.4-.4s-.4.1790861-.4.4c-.0030199 2.6497149-2.1502851 4.79698008-4.8 4.8-.2209139 0-.4.1790861-.4.4s.1790861.4.4.4c2.6497149.00301992 4.7969801 2.1502851 4.8 4.8 0 .2209139.1790861.4.4.4s.4-.1790861.4-.4c.0030199-2.6497149 2.1502851-4.79698008 4.8-4.8.2209139 0 .4-.1790861.4-.4s-.1790861-.4-.4-.4zm-5.2 2.8c-.4378242-1.09474656-1.3052534-1.96217577-2.4-2.4 1.0947466-.43782423 1.9621758-1.30525344 2.4-2.4.4378242 1.09474656 1.3052534 1.96217577 2.4 2.4-1.0947466.43782423-1.9621758 1.30525344-2.4 2.4z" fill="#ff4439" fill-rule="nonzero"/></g></svg>