<svg height="46" viewBox="0 0 55 46" width="55" xmlns="http://www.w3.org/2000/svg"><g fill="none"><g fill="#000"><path d="m36.7391021 12.9993067c-1.7967755 2.0876266-2.6179047 4.8574933-2.2548576 7.6030933.0006837.0076267.0020512.0152533.0027349.02288.4491938 3.33632.4491938 6.7197867 0 10.0561067l1.3551024.1878933c.4649191-3.4541867.4656028-6.9569067.0027348-10.4117867-.0013674-.0076266-.0020511-.01456-.0027348-.0221866-.0772586-.5733867-.0916164-1.14816-.0505942-1.7153067h16.5326596c.0410223.5616.0273482 1.1301333-.0478593 1.6979733-.0013674.00624-.0020511.0131734-.0034185.0201067-.4649191 3.4604267-.4649191 6.97008 0 10.4305067l.4184271 3.1047466h-10.1006006v1.3866667h10.2865683l.1237505.9186667c.1333224.99216-.162038 1.9933333-.8115573 2.74768-.6495193.7543466-1.5882456 1.1869866-2.575515 1.1869866h-11.11225v1.3866667h11.11225c1.3817669 0 2.6965307-.6059733 3.605174-1.66192.9093271-1.0559467 1.323652-2.4578667 1.1370007-3.8473067l-.7274616-5.4093866c-.4478265-3.3307734-.4485102-6.7086934-.0027348-10.0387734.0013674-.0069333.0020511-.0131733.0034185-.0201066.3698841-2.7525334-.4505613-5.53072-2.2521228-7.6232-1.2251985-1.4234134-2.8264346-2.42112-4.584239-2.9217067v-3.8376h.6837046c.3780886 0 .6837045-.31061333.6837045-.69333333v-3.46666667c0-1.14677333-.9202663-2.08-2.0511136-2.08h-8.2044545c-1.1308473 0-2.0511137.93322667-2.0511137 2.08v1.38666667c0 .38272.305616.69333333.6837046.69333333h3.4185227v1.38666667c0 .38272.3056159.69333333.6837046.69333333h.6837045v3.8376c-1.7578044.5005867-3.3590404 1.4982933-4.584239 2.9217067zm13.6077716.9117333c.8553143.9935467 1.4412491 2.1708267 1.7495999 3.4222933h-16.0766286c.307667-1.2514666.8942855-2.4287466 1.7495999-3.4222933 1.54107-1.79088 3.7692631-2.8177067 6.113686-2.8177067h.3500567c2.3444229 0 4.5719323 1.0268267 6.1136861 2.8177067zm-13.1257599-11.13770667v-.69333333c0-.38202667.3062997-.69333333.6837046-.69333333h8.2044545c.3774049 0 .6837045.31130666.6837045.69333333v2.77333333h-5.4696363v-.69333333h2.0511136v-1.38666667h-2.7348181zm5.4696364 3.46666667h2.7348182v3.55056c-.3938139-.05061333-.7910462-.08389333-1.1923808-.08389333h-.3500567c-.4013346 0-.7985669.03328-1.1923807.08389333z"/><path d="m23.6904065 24.8247154c0 .2523734.01664.5040534.0513067.75296-1.60576.3022934-2.82464 1.7153067-2.82464 3.40704 0 1.91152 1.5551466 3.4666667 3.4666666 3.4666667v-1.3866667c-1.1467733 0-2.08-.9332266-2.08-2.08 0-1.144.9283734-2.0751466 2.10288-2.0751466h.0097067c.0409067.0055466.08112.0104.12272.0138666.2239467.0173334.4499733-.0783466.5934933-.2572266.14352-.1781867.18928-.416.1234134-.6350934-.11856-.3924266-.17888-.7980266-.17888-1.2070933 0-2.29424 1.86576-4.16 4.16-4.16.8555733 0 1.6778666.25792 2.3767466.7453333l.7938667-1.13776c-.9332267-.6496533-2.0293867-.9935466-3.1706133-.9935466-3.0582934 0-5.5466667 2.4883733-5.5466667 5.5466666z" transform="matrix(-.05233596 .99862953 .99862953 .05233596 2.228513 -2.11478)"/><path d="m27.2 8.8c0 1.3232 1.0768 2.4 2.4 2.4s2.4-1.0768 2.4-2.4-1.0768-2.4-2.4-2.4-2.4 1.0768-2.4 2.4zm3.84 0c0 .79344-.64512 1.44-1.44 1.44s-1.44-.64656-1.44-1.44.64512-1.44 1.44-1.44 1.44.64656 1.44 1.44z"/><path d="m17.6 19.6c0 1.1026667.8973333 2 2 2s2-.8973333 2-2-.8973333-2-2-2-2 .8973333-2 2zm3 0c0 .551-.448 1-1 1s-1-.449-1-1 .448-1 1-1 1 .449 1 1z"/></g><path d="m45.3333333 21.6h-2.6666666c-.3686667 0-.6666667.2986667-.6666667.6666667v1.3333333h-1.3333333c-.3686667 0-.6666667.2986667-.6666667.6666667v2.6666666c0 .368.298.6666667.6666667.6666667h1.3333333v1.3333333c0 .368.298.6666667.6666667.6666667h2.6666666c.3686667 0 .6666667-.2986667.6666667-.6666667v-1.3333333h1.3333333c.3686667 0 .6666667-.2986667.6666667-.6666667v-2.6666666c0-.368-.298-.6666667-.6666667-.6666667h-1.3333333v-1.3333333c0-.368-.298-.6666667-.6666667-.6666667zm1.3333334 3.3333333v1.3333334h-1.3333334c-.3686666 0-.6666666.2986666-.6666666.6666666v1.3333334h-1.3333334v-1.3333334c0-.368-.298-.6666666-.6666666-.6666666h-1.3333334v-1.3333334h1.3333334c.3686666 0 .6666666-.2986666.6666666-.6666666v-1.3333334h1.3333334v1.3333334c0 .368.298.6666666.6666666.6666666z" fill="#ff4439"/><path d="m41.043914 35.2614136-10.8542198-3.3892369c-1.6146774-.6472813-3.1845025-.8270816-4.6735939-.539401-.0269113.00899-.0538225.00899-.0807338.01798l-10.9170129 3.3802468c-.6369005.1798004-1.1123332.512431-1.4442391.9169818l-8.18103185-3.5510571c-1.27380101-.6382913-2.63730631-.6293013-3.65096486.0359601-.82527952.539401-1.29174186 1.4204228-1.23791928 2.3463947.03588172.6023312.32293546 1.7440635 1.91070151 2.5531651l12.02037568 6.1401824c1.085422.5573811 2.045258.7281914 2.9153896.521421l12.2625773-1.7530535c1.8837902-.2697005 1.8837902-.2697005 3.570231.5933412l5.7321045 2.975696c.3229355.1708103.708664.0899658.9418951-.1708104.0448522-.0449501.0807339-.1078802.1166156-.1708103.1973495-.3865708.0448522-.8630417-.3408763-1.0608221l-5.7321045-2.975696c-2.0631988-1.0518321-2.3681934-1.0608222-4.5031557-.7461715l-12.298459 1.7620435c-.0269113 0-.0538226.00899-.0807339.0179801-.502344.1258602-1.1123332 0-1.8658493-.3865708l-12.02037572-6.1401824c-.65484136-.3326307-1.0315994-.7731415-1.05851069-1.2316325-.01794086-.3596007.17940859-.7102114.52925535-.9349618.55616663-.3685908 1.32762358-.3416207 2.10805096.0539401.01794086.00899.02691129.01798.04485215.01798l8.21691355 3.5690372c-.0358817.3326307-.0089705.6652613.0717634.979912.3677876 1.4384029 1.8837902 2.7419555 4.3596288 2.1845744h.0179409l6.4138571-1.5822432c.4216102-.1078802.6727823-.5304111.5741075-.9529419-.1076451-.4225309-.5292553-.6832414-.9508655-.5753612l-6.4048867 1.5822432c-1.4621801.3236406-2.3054005-.2876806-2.4937795-1.0338521-.1435269-.5573811.0807339-1.2136524.897043-1.4473929.0089704 0 .0089704 0 .0179408-.00899l10.8811312-3.3712568c1.2020375-.2247505 2.4399568-.0719202 3.7855213.4674809.0179408.00899.0358817.0179801.062793.0179801l10.8811311 3.3982268c.2960242.0899002.6099892 0 .8163091-.2247505.0717634-.0809101.1345564-.1798003.1704382-.2966706.1076451-.4135408-.1166156-.8630417-.5292554-.9889019z" fill="#000" transform="matrix(-1 0 0 1 41.6 0)"/></g></svg>