<svg height="36" viewBox="0 0 48 36" width="48" xmlns="http://www.w3.org/2000/svg"><g fill="none"><g fill="#000"><g><path d="m44.9997559 36h-41.9995118c-1.6542969 0-3-1.3457031-3-3v-24c0-1.6542969 1.3457031-3 3-3h41.9995117c1.6542969 0 3 1.3457031 3 3v24c0 1.6542969-1.3457031 3-2.9999999 3zm-41.9995118-28c-.5512695 0-1 .4482422-1 1v24c0 .5517578.4487305 1 1 1h41.9995117c.5512695 0 1-.4482422 1-1v-24c0-.5517578-.4487305-1-1-1z"/><path d="m31.4387207 8h-14.8779297v-5c0-1.6542969 1.3457031-3 3-3h8.8779297c1.6542969 0 3 1.3457031 3 3zm-12.8779297-2h10.8779297v-3c0-.5517578-.4487305-1-1-1h-8.8779297c-.5512695 0-1 .4482422-1 1z"/><path d="m23.9997559 30c-4.9624023 0-9-4.0371094-9-9s4.0375977-9 9-9 9 4.0371094 9 9-4.0375977 9-9 9zm0-16c-3.8598633 0-7 3.140625-7 7s3.1401367 7 7 7 7-3.140625 7-7-3.1401368-7-7-7z"/></g><path d="m7.999756 4h2v2h-2z"/><path d="m37.999756 4h2v2h-2z"/></g><g fill="#ff4439"><path d="m22.999756 18h2v6h-2z"/><path d="m20.999756 20h6v2h-6z"/></g></g></svg>