<svg height="22" viewBox="0 0 58 22" width="58" xmlns="http://www.w3.org/2000/svg"><g fill="none" fill-rule="evenodd"><g fill="#000" fill-rule="nonzero"><path d="m9.408 11.81376c3.2047538 0 5.80272-2.59796624 5.80272-5.80272s-2.5979662-5.80272-5.80272-5.80272c-3.20475376 0-5.80272 2.59796624-5.80272 5.80272.00370315 3.20321862 2.59950138 5.7990169 5.80272 5.80272zm0-10.26144c2.4624831 0 4.45872 1.99623694 4.45872 4.45872s-1.9962369 4.45872-4.45872 4.45872c-2.46248306 0-4.45872-1.99623694-4.45872-4.45872.001853-2.46171511 1.99700489-4.456867 4.45872-4.45872z"/><path d="m9.408 13.20816c-5.1912 0-9.408 3.6288-9.408 8.08752 0 .3711354.30086465.672.672.672s.672-.3008646.672-.672c0-3.71952 3.62208-6.74352 8.064-6.74352s8.064 3.024 8.064 6.74352c0 .3711354.3008646.672.672.672s.672-.3008646.672-.672c0-4.45872-4.2168-8.08752-9.408-8.08752z"/></g><g fill="#000" fill-rule="nonzero" transform="translate(38.5)"><path d="m9.408 11.81376c3.2047538 0 5.80272-2.59796624 5.80272-5.80272s-2.5979662-5.80272-5.80272-5.80272c-3.20475376 0-5.80272 2.59796624-5.80272 5.80272.00370315 3.20321862 2.59950138 5.7990169 5.80272 5.80272zm0-10.26144c2.4624831 0 4.45872 1.99623694 4.45872 4.45872s-1.9962369 4.45872-4.45872 4.45872c-2.46248306 0-4.45872-1.99623694-4.45872-4.45872.001853-2.46171511 1.99700489-4.456867 4.45872-4.45872z"/><path d="m9.408 13.20816c-5.1912 0-9.408 3.6288-9.408 8.08752 0 .3711354.30086465.672.672.672s.672-.3008646.672-.672c0-3.71952 3.62208-6.74352 8.064-6.74352s8.064 3.024 8.064 6.74352c0 .3711354.3008646.672.672.672s.672-.3008646.672-.672c0-4.45872-4.2168-8.08752-9.408-8.08752z"/></g><g fill="#ff4439"><circle cx="22.8" cy="12.7" r="1.5"/><circle cx="29.8" cy="12.7" r="1.5"/><circle cx="36.8" cy="12.7" r="1.5"/></g></g></svg>