<svg height="50" viewBox="0 0 26 50" width="26" xmlns="http://www.w3.org/2000/svg"><g fill="none" fill-rule="evenodd" transform="translate(-13)"><path d="m20.9039015 9.90035706c-.6766759 0-1.3584785.29619004-1.8711118.80696594l-.2254787.2298492c-.9791298.9755829-1.0816566 2.4670506-.230685 3.3200483l1.2917962 1.2923047 15.7480587 15.7472803c.0410106.0408626.0974804.0765583.1589963.0918821l6.0131306 2.7786433c.1794215.0817226.3947681.0050845.4767878-.1736837.0461392-.0970489.0461392-.2043298 0-.3013786l-2.7785323-6.0118007c-.0153819-.0612926-.0512026-.1174571-.0922137-.1583197l-15.7481591-15.7523696-1.2917964-1.2923048c-.3844751-.3779732-.9125275-.58733177-1.4507926-.57711674zm.9432655 1.07771884 1.0406858 1.0420037-2.7631139 2.7632818-1.0406859-1.0369168c-.5741494-.572071-.4716027-1.6089079.2255786-2.3086704l.2306853-.2298492c.3793485-.3779756.8765831-.5975686 1.3635846-.5975686.0221081-.0007263.0442121-.0007263.0661818-.0002421.3295447.0070118.6415929.1381124.8770837.3679616zm1.5430067 1.5527796 15.1226873 15.1240736-1.7275358.5312278-14.5229451-14.526505zm-1.6301142 1.6395723 14.522845 14.5214181-.5330589 1.726365-15.1175797-15.1189867zm17.2090631 14.0923455 1.2303211 2.6662135-1.1739499 1.1747871-2.6604881-1.2309516.6099538-1.9971155zm1.5482137 3.3557634.6868492 1.4915258-1.4866375-.6895475z" fill="#000" fill-rule="nonzero" transform="matrix(-.70710678 -.70710678 .70710678 -.70710678 35.877565 58.960974)"/><path d="m30.1541556 6.41286529.8290142 2.25271312h-1.6608078z" fill="#ff4439"/><path d="m37.3135389 6.87414171-.0876507-.08765522c-.6475191-.64864865-1.7048051-.64864865-2.3534199 0l-1.2818907 1.28195763-.2432306-.24324324c-.1544843-.15449233-.4272969-.15449233-.5806856 0l-1.5141649 1.51424397c-.1994052-.16435354-.4798873-.33199416-.8502113-.3725347-.6201284-.07231556-1.2544999.22461651-1.896541.86778671l-5.3116293 5.31190654c-.1599625.1599707-.1599625.420745 0 .5807158.0799812.0799854.185162.1205259.2903428.1205259.1051807 0 .2103615-.0405405.2903427-.1205259l5.3116294-5.3119065c.4492096-.44813732.8677414-.66179692 1.218344-.63221328.1479105.01424397.2640476.07669832.3604633.14463111l-21.79981215 21.79985387c-.00219127.0021914-.00109563.0065742-.0032869.0087656-.03286899.0339664-.06245109.0712198-.08217248.1161431l-1.80560338 4.0934989c-.0230083.0536889-.03396463.1095691-.03396463.1643536 0 .0021914.00109563.0043827.00109563.0065741.00109563.1051863.04272969.2070855.11723275.2826881.00109563.0010957 0 .0021914.00109563.0032871l.02848646.0284879-.6683362.6672754c-.15996244.1599708-.15996244.4207451 0 .5807159.07998121.0799854.18516199.1205259.29034277.1205259s.21036156-.0405405.29034278-.1205259l.6683362-.6672754.02848646.0284879c.07998122.0799854.185162.120526.29034278.120526.02739083 0 .04930349-.0262966.07669432-.0317751.03615589-.0054784.07231178-.0076698.10737204-.0219138l4.07575522-1.7837837c.0241039-.0109569.041634-.0295837.0624511-.0438277.020817-.0142439.0449209-.0241051.0635467-.0427319l.0065738-.0065741s.0010956-.0010957.0010956-.0010957l22.0846768-22.0858291 1.8088903-1.8089846c.1599624-.1599708.1599624-.4207451 0-.5807159l-.2432306-.2432432 1.2818908-1.28195767c.6486148-.64974434.6486148-1.70598977 0-2.35463842zm-3.7185788 5.97918189-17.962905 17.9627465-2.3468461-2.3469686 17.9629049-17.9627465 1.1734231 1.1734843zm-19.1494757 19.1493791-2.3468461-2.3469686.6058851-.6059167 2.3468461 2.3469686zm-2.9275317-1.765157 2.3468462 2.3469685-1.7814995 1.7804968-2.34684612-2.3469686zm-3.44576613 6.0153396-.23227422-.2322863 1.44952262-3.2870709 2.07732043 2.0774288zm24.98481763-27.55661065 2.3468462 2.34696855-1.2282048 1.2282689-2.3468461-2.34696864zm3.5871029-1.32797662.0876506.08765522c.3286899.32870709.3286899.86230825 0 1.19101534l-1.2818907 1.28195763-1.2786039-1.27867056 1.2818908-1.28195763c.3275943-.32870709.8622632-.32870709 1.1909532 0z" fill="#000" fill-rule="nonzero" transform="matrix(.5591929 -.82903757 .82903757 .5591929 -8.560482 28.000075)"/><path d="m35.2950833 22.2246354-18.9914937.0348424c-.798095.1242991-1.4702522.5603227-1.9118109 1.1647953s-.6525189 1.3773942-.5282198 2.1754891l3.2239162 20.7c.1109267.7122338.473056 1.3309521.9876587 1.7716119.5146027.4406599 1.1816788.7032613 1.9024989.7032613h11.8432919c.7142995 0 1.3763481-.257991 1.8893793-.6920937.5130313-.4341027.8770452-1.0443171.9952751-1.7487639l3.5145043-21.1841424c0-.8077165-.3273918-1.5389665-.8567127-2.0682873-.5293209-.5293209-1.2605709-.8567127-2.0682873-.8567127z" fill="#fff" stroke="#000" stroke-width="1.35"/><path d="m19.5652616 3.3307812-1.3436948 1.31947548-1.300725-1.2561611 1.3621853-1.44979866c.3151054-.31615925.8131143-.29367613 1.1292736.02248312.5392562.39555246.5902431.85021951.1529609 1.36400116z" fill="#ff4439" transform="matrix(.57357644 -.81915204 .81915204 .57357644 5.233556 16.421944)"/><path d="m19.5555067 35.9327667h16.1620956c.3620263 0 .6555066.2934804.6555066.6555067s-.2934803.6555066-.6555066.6555066h-16.1620956c-.3620264 0-.6555067-.2934803-.6555067-.6555066s.2934803-.6555067.6555067-.6555067z" fill="#000" transform="matrix(1 0 0 -1 0 73.176546)"/><path d="m21.3555067 31.5h14.8889866c.3620264 0 .6555067.2934803.6555067.6555067 0 .3620263-.2934803.6555066-.6555067.6555066h-14.8889866c-.3620264 0-.6555067-.2934803-.6555067-.6555066 0-.3620264.2934803-.6555067.6555067-.6555067z" fill="#ff4439" transform="matrix(1 0 0 -1 0 64.311014)"/></g></svg>