<svg height="44" viewBox="0 0 55 44" width="55" xmlns="http://www.w3.org/2000/svg"><g fill="none" transform="translate(12 5)"><path d="m32.5323353 25.3810757-7.9700599-2.4782869c-1.1856287-.4733067-2.3383233-.6047808-3.4317365-.3944223-.0197605.0065737-.0395209.0065737-.0592814.0131474l-8.0161677 2.4717132c-.4676647.1314741-.8167664.3747012-1.060479.6705179l-6.00718565-2.5966135c-.93532934-.4667331-1.93652695-.4601594-2.68083832.0262948-.60598803.3944223-.948503 1.0386454-.90898204 1.715737.02634731.4404383.23712575 1.2752989 1.40299401 1.8669323l8.8263473 4.4898407c.797006.4075697 1.5017964.5324701 2.1407186.3812749l9.0041916-1.2818726c1.3832335-.1972111 1.3832335-.1972111 2.6215569.4338646l4.208982 2.1758964c.2371258.1249004.5203593.065785.6916168-.1249004.0329341-.0328685.0592814-.0788845.0856287-.1249004.1449102-.2826693.0329342-.6310757-.2502994-.7756972l-4.208982-2.1758964c-1.5149701-.7691235-1.7389222-.7756972-3.3065868-.5456176l-9.030539 1.2884463c-.0197604 0-.0395209.0065737-.0592814.0131474-.3688623.0920318-.8167665 0-1.3700599-.2826693l-8.82634729-4.4898407c-.48083832-.2432271-.75748503-.5653386-.77724551-.9005976-.01317365-.2629482.13173653-.5193227.38862276-.6836653.40838323-.2695219.9748503-.2498008 1.54790419.0394422.01317365.0065737.01976048.0131474.03293413.0131474l6.03353292 2.609761c-.0263473.2432271-.0065868.4864541.0526946.7165338.2700599 1.0517929 1.3832336 2.0049801 3.2011976 1.5974104h.0131737l4.7095808-1.1569721c.3095809-.0788845.494012-.3878486.4215569-.6968128-.0790419-.3089641-.3886227-.4996016-.6982036-.4207171l-4.702994 1.1569721c-1.0736527.2366534-1.6928144-.2103586-1.8311377-.7559761-.1053892-.4075697.0592814-.8874502.6586826-1.0583665.0065868 0 .0065868 0 .0131737-.0065737l7.9898203-2.4651395c.8826348-.1643426 1.7916168-.0525896 2.7796407.3418327.0131737.0065737.0263473.0131474.0461078.0131474l7.9898204 2.4848606c.2173653.065737.4479042 0 .5994012-.1643427.0526946-.0591633.0988024-.1314741.1251497-.2169322.0790419-.3023905-.0856288-.6310757-.3886228-.7231076z" fill="#000"/><path d="m12.8772455 23.4549801c.0790419.0328685.1580838.0525896.2371258.0525896.0790419 0 .1646706-.0197211.2371257-.0525896 7.1598802-3.2934263 11.2568862-7.3756972 12.5347305-12.4768925 1.0209581-4.06254975-.2107784-7.78326688-3.2011976-9.7093625-2.8520958-1.82749004-6.560479-1.55139442-9.5640718.67051793-3.0035928-2.22191235-6.71197606-2.49800797-9.56407187-.66394423-2.99700599 1.91952192-4.22215569 5.64023905-3.20119761 9.7027888 1.27784431 5.1011953 5.3748503 9.1768925 12.52155688 12.4768925zm-8.7011976-21.21334663c1.06706587-.68366534 2.27904192-1.01892431 3.53053893-1.01892431 1.71916167 0 3.50419157.64422311 5.05209577 1.89322709.2107785.17091634.5071857.17091634.7179641 0 2.6742515-2.162749 6.0401198-2.50458167 8.5826347-.87430278 2.6017964 1.66972111 3.6161677 4.8316733 2.7071857 8.45378483-1.1724551 4.6804781-4.9862276 8.4800797-11.6520958 11.596016-6.65928148-3.1159363-10.47305393-6.9089642-11.64550902-11.596016-.90898204-3.62211153.09880239-6.78406372 2.70718562-8.45378483z" fill="#ff4338"/><path d="m8.33892216 3.51693227c0-.31553785-.25688623-.57848605-.5730539-.57848605-2.64131736 0-4.79520958 2.15617529-4.79520958 4.80537848 0 .31553785.25688623.57848606.57305389.57848606.31616767 0 .5730539-.25637451.5730539-.57848606 0-2.01812749 1.63353293-3.65498008 3.64251497-3.65498008.32275449 0 .57964072-.2563745.57964072-.57191235z" fill="#000"/></g></svg>