<svg height="44" viewBox="0 0 55 44" width="55" xmlns="http://www.w3.org/2000/svg"><g fill="none" transform="translate(12 6)"><path d="m15.9013626 17.4871798c-1.3749014 0-2.4797328 1.1299408-2.4797328 2.5360894 0 1.1048311.7120025 2.0338935 1.6695231 2.3854307v2.4105405c0 .4519763.3682771.8286233.8102097.8286233.4419325 0 .8102097-.376647.8102097-.8286233v-2.4105405c.9820724-.3515372 1.669523-1.2805996 1.669523-2.3854307 0-1.4061486-1.1048314-2.5360894-2.4797327-2.5360894zm0 3.4002849c-.5904126 0-1.0627426-.4533713-1.0627426-1.0200855 0-.5667141.47233-1.0200854 1.0627426-1.0200854.5904125 0 1.0627426.4533713 1.0627426 1.0200854 0 .5667142-.4723301 1.0200855-1.0627426 1.0200855z" fill="#ff4338"/><g fill="#000"><path d="m18.0369691 0c4.8296493 0 8.7448535 3.53591555 8.7448535 7.89768844v6.09205536l-11.1551769-2.93298-10.70695675 2.93298v-6.09205536c0-4.36177289 3.91520425-7.89768844 8.74485345-7.89768844zm0 1.42158392h-4.3724267c-3.88697322 0-7.05161648 2.79305801-7.16749251 6.27811235l-.00328732.19799217v5.55839316l9.13288313-2.3993178 9.5811033 2.4356471v-5.59472246c0-3.51041944-3.0926623-6.36848522-6.9515496-6.47313566z"/><path d="m26.9866793 13.1432461-11.1359235-3.34029434-11.13592357 3.34029434c-2.4356064.7305763-4.10235223 2.9621733-4.10235223 5.4926172v7.7641372c0 3.1684151 2.58220666 5.7369231 5.76752 5.7369231h18.9415116c3.1853133 0 5.76752-2.568508 5.76752-5.7369231v-7.7641372c0-2.5304439-1.6667459-4.7620409-4.1023523-5.4926172zm-21.88871113 1.263788 10.75301423-3.2256187 10.752561 3.2256187c1.8752014.5624792 3.1584482 2.2806114 3.1584482 4.2288292v7.7641372c0 2.4393993-1.9880706 4.4169231-4.44048 4.4169231h-18.9415116c-2.45240939 0-4.44048-1.9775238-4.44048-4.4169231v-7.7641372c0-1.9482178 1.28324679-3.66635 3.15844817-4.2288292z"/></g></g></svg>